<?xml version="1.0" standalone="no"?>
<!DOCTYPE svg PUBLIC "-//W3C//DTD SVG 20010904//EN"
 "http://www.w3.org/TR/2001/REC-SVG-20010904/DTD/svg10.dtd">
<svg version="1.0" xmlns="http://www.w3.org/2000/svg"
 width="192.000000pt" height="192.000000pt" viewBox="0 0 192.000000 192.000000"
 preserveAspectRatio="xMidYMid meet">
<metadata>
Created by potrace 1.14, written by Peter Selinger 2001-2017
</metadata>
<g transform="translate(0.000000,192.000000) scale(0.100000,-0.100000)"
fill="#000000" stroke="none">
<path d="M176 1909 c2 -4 17 -5 31 -3 15 3 24 2 21 -2 -4 -4 -27 -8 -50 -10
-24 -2 -44 -8 -46 -14 -2 -5 -8 -10 -14 -10 -12 0 -61 -50 -50 -50 4 0 -1 -5
-11 -11 -9 -6 -15 -14 -12 -19 3 -5 1 -11 -5 -15 -5 -3 -10 -15 -10 -25 0 -10
-5 -20 -12 -22 -16 -6 -19 -90 -4 -100 7 -5 7 -8 -3 -8 -11 0 -11 -3 0 -17 9
-11 10 -14 2 -9 -10 5 -12 -6 -12 -43 1 -34 5 -48 13 -44 8 5 8 3 0 -8 -16
-20 -16 -121 -1 -112 9 5 9 3 1 -8 -16 -20 -16 -121 -1 -112 9 5 8 2 0 -8 -18
-22 -19 -1035 -1 -1057 7 -8 14 -23 14 -34 1 -10 2 -25 3 -34 0 -8 5 -13 9
-10 4 2 8 -4 9 -14 2 -29 68 -90 97 -90 14 0 28 -5 31 -11 8 -11 145 -10 145
1 0 4 13 6 30 5 16 -1 28 2 27 8 -1 6 7 13 18 15 11 2 26 12 33 21 7 9 10 10
7 3 -6 -11 -3 -11 13 -1 12 7 18 17 16 21 -3 5 -2 8 3 7 18 -4 62 14 60 24 -1
6 3 12 8 12 20 3 51 19 95 49 25 17 47 31 50 31 3 0 4 4 2 9 -2 5 3 6 11 3 8
-3 27 5 43 19 16 13 37 23 47 24 10 0 16 4 13 9 -4 5 15 19 41 32 27 13 54 29
61 36 7 7 20 13 28 13 8 0 14 5 14 10 0 6 7 10 15 10 8 0 15 5 15 10 0 6 7 10
15 10 8 0 15 4 15 10 0 5 3 10 8 9 18 -3 51 14 45 24 -4 6 0 8 10 4 11 -4 17
-1 17 9 0 8 4 13 9 10 13 -8 42 4 35 15 -4 8 17 14 39 10 4 0 6 2 5 6 -2 5 0
8 3 8 4 0 16 8 27 18 12 11 26 16 31 12 6 -3 11 1 11 10 0 9 4 14 9 10 5 -3
13 0 16 5 4 6 18 15 32 21 13 5 21 13 18 19 -3 5 0 7 9 4 8 -3 23 3 33 13 11
11 25 17 33 15 8 -3 10 0 5 8 -6 9 -4 12 6 8 16 -6 41 16 31 28 -4 4 -1 4 6 0
7 -4 25 2 41 13 16 12 34 21 40 21 6 0 11 5 11 11 0 6 7 8 16 5 8 -3 12 -2 9
4 -3 6 -2 10 3 10 5 0 27 17 48 37 21 21 43 36 47 35 5 -1 6 2 2 8 -3 5 3 23
14 39 11 15 18 31 14 35 -3 3 -1 6 5 6 8 0 9 7 2 26 -6 14 -6 23 -1 20 13 -8
20 16 10 34 -4 8 -12 34 -18 58 -7 23 -16 42 -22 42 -6 0 -7 5 -4 10 3 6 -1
13 -9 16 -9 3 -16 12 -16 19 0 8 -9 16 -19 20 -11 3 -22 12 -25 20 -3 8 -13
15 -21 15 -10 0 -13 5 -9 12 5 8 2 9 -9 5 -11 -4 -17 -1 -17 8 0 8 -9 15 -20
15 -11 0 -20 5 -20 10 0 6 -7 10 -15 10 -9 0 -21 5 -28 10 -24 20 -87 59 -87
54 0 -3 -7 2 -16 10 -8 9 -20 14 -25 11 -5 -4 -9 1 -9 10 0 10 -7 15 -17 13
-11 -2 -17 2 -15 10 1 8 -1 11 -6 8 -5 -3 -19 4 -30 15 -12 11 -22 17 -22 13
0 -3 -6 -1 -13 5 -8 6 -17 8 -20 4 -4 -3 -7 -1 -7 5 0 7 -7 12 -15 12 -8 0
-15 5 -15 11 0 5 -4 8 -9 5 -5 -3 -11 1 -15 9 -3 8 -14 15 -24 15 -10 0 -27 8
-38 18 -10 9 -36 25 -56 34 -21 10 -38 23 -38 28 0 6 -4 9 -9 5 -5 -3 -17 2
-25 11 -9 8 -16 12 -16 7 0 -4 -4 -3 -8 3 -4 6 -27 21 -52 35 -25 13 -48 28
-51 32 -3 5 -10 9 -15 9 -5 0 -7 5 -6 12 2 6 0 8 -4 4 -6 -6 -58 16 -74 32 -3
3 -25 16 -50 29 -25 14 -51 32 -58 40 -11 13 -12 13 -6 1 6 -11 2 -10 -13 3
-11 9 -23 17 -28 17 -5 0 -20 10 -33 23 -14 12 -22 15 -18 7 4 -8 -2 -4 -14
10 -12 14 -19 18 -15 10 4 -8 -3 -4 -14 9 -12 13 -21 20 -21 17 0 -9 -63 24
-72 38 -4 6 -8 8 -8 3 0 -4 -16 -1 -35 8 -20 8 -34 11 -31 6 7 -10 -31 -7 -41
4 -5 4 -3 5 4 1 6 -3 14 -3 17 2 2 4 -19 8 -49 8 -30 0 -52 -3 -49 -7z m-150
-209 c0 -12 -4 -16 -9 -11 -5 5 -6 14 -3 20 10 15 12 14 12 -9z"/>
<path d="M0 190 c0 -5 5 -10 11 -10 5 0 7 5 4 10 -3 6 -8 10 -11 10 -2 0 -4
-4 -4 -10z"/>
</g>
</svg>
