<svg xmlns="http://www.w3.org/2000/svg" width="17" height="16" aria-hidden="true" data-bbox="1.833 2.667 13.334 10.666" data-type="color" viewBox="1.83 2.67 13.33 10.67">
	<defs>
		<style>
			#comp-lnoncoa62__50f84a91-f107-41d7-b24c-2fd6e889cc91 svg [data-color=&quot;1&quot;]{fill:#00aeef}
		</style>
	</defs>
	<path fill="#fff" d="m10.3 2.87 4.67 4.66a.65.65 0 0 1 0 .94l-4.67 4.66a.64.64 0 0 1-.93 0 .64.64 0 0 1 0-.93l3.53-3.53H2.5c-.4 0-.67-.27-.67-.67s.27-.67.67-.67h10.4L9.37 3.8a.6.6 0 0 1-.2-.47c0-.2.06-.33.2-.46a.64.64 0 0 1 .93 0Z" data-color="1"/>
</svg>
