<svg data-bbox="-0.049 -0.035 160.05 35.031" xmlns="http://www.w3.org/2000/svg" viewBox="-0.05 -0.04 160.05 35.03" height="36" width="160" data-type="color" aria-hidden="true"><g clip-path="url(#a)"><path fill="#00ADEE" d="M17.72 20.13a3.74 3.74 0 0 1-1.19 3.08A42.4 42.4 0 0 1 3.5 31.5a6 6 0 0 1-1.37.36 1.04 1.04 0 0 1-1.26-1.08 2.46 2.46 0 0 1 .14-.65c1.27-3.64 5.62-11.54 7.47-14.8 2.32-4.08 8.4-13.9 9.32-15a.33.33 0 0 1 .4-.1c.15.08.27.17.12.7-.8 2.92-1.96 9.26-.76 17.92.07.45.12.86.16 1.24M19.19 24.29a3.74 3.74 0 0 1 3.26-.51 42.26 42.26 0 0 1 13.7 7.13c.37.3.7.63 1 1a1.04 1.04 0 0 1-.31 1.64 2.37 2.37 0 0 1-.66.2c-3.79.72-12.8.9-16.56.93-4.68 0-16.23-.32-17.6-.58a.32.32 0 0 1-.28-.3c0-.17 0-.32.55-.46 2.92-.76 8.99-2.94 15.89-8.3.36-.28.65-.53 1-.75M22.05 20.93a3.73 3.73 0 0 1-2.07-2.56 42.33 42.33 0 0 1-.65-15.44 6 6 0 0 1 .37-1.36 1.04 1.04 0 0 1 1.56-.55c.18.12.35.27.5.43 2.5 2.93 7.17 10.65 9.07 13.88 2.38 4.05 7.83 14.23 8.31 15.56a.32.32 0 0 1-.1.39c-.15.1-.3.15-.66-.25-2.13-2.15-7.04-6.31-15.13-9.61-.42-.17-.8-.32-1.16-.5" data-color="1"/><path fill="#00ADEE" d="M17.39 19.38c.16 1.65.24 2.51-1.1 3.92a44.35 44.35 0 0 1-8.48 6.23 36.38 36.38 0 0 1-5.07 2.48c-1.15.4-2.1.59-2.61-.24a1.6 1.6 0 0 1 0-1.46c1.24-3.37 4.82-9.66 7.17-13.74l.74-1.31c3.6-6.2 8.35-13.78 9.29-15 .13-.18.38-.38.61-.25a.45.45 0 0 1 .16.48l-.08.34c-1.54 6.26-1.38 12.39-.65 18.52M22.64 21.31c-1.52-.69-2.3-1.05-2.85-2.91A44.17 44.17 0 0 1 18.6 7.96c-.01-1.88.12-3.77.4-5.63.21-1.2.54-2.12 1.5-2.12a1.61 1.61 0 0 1 1.26.73c2.3 2.77 5.95 9 8.32 13.04.25.42.5.85.74 1.3 3.58 6.22 7.77 14.13 8.35 15.56.08.2.14.52-.09.65a.46.46 0 0 1-.5-.1l-.25-.24c-4.65-4.47-10.05-7.4-15.7-9.84zM18.34 24.89c1.35-.97 2.05-1.47 3.94-1.01a44.05 44.05 0 0 1 9.64 4.22 36.58 36.58 0 0 1 4.68 3.16c.93.78 1.56 1.53 1.08 2.36a1.6 1.6 0 0 1-1.26.72c-3.54.61-10.77.66-15.48.66h-1.48c-7.17 0-16.11-.35-17.6-.55-.23 0-.53-.14-.53-.4a.45.45 0 0 1 .34-.38l.33-.1c6.2-1.8 11.43-5.01 16.37-8.69" data-color="1"/><path fill="#fff" d="m48.77 20.82.96-.97-2.68-2.68a.68.68 0 0 0-.97.96l2.69 2.69zM51.66 21.78l3.67-3.68a.65.65 0 0 0 0-.97.7.7 0 0 0-.96 0l-3.68 3.68-.96.97-3.62 3.62a.65.65 0 0 0 0 .96.65.65 0 0 0 .96 0l3.62-3.62 3.65 3.65a.7.7 0 0 0 .96 0 .65.65 0 0 0 0-.97l-3.64-3.64zM70.71 16.53c.12.39.28.76.5 1.11.2.31.48.7.82 1.17.35.44.68.9.98 1.39.27.46.5.96.65 1.47a6.86 6.86 0 0 1 .26 2.01 5.4 5.4 0 0 1-.65 2.68 4.17 4.17 0 0 1-1.7 1.7 5.18 5.18 0 0 1-2.43.56 5.04 5.04 0 0 1-2.4-.57 4.14 4.14 0 0 1-1.7-1.68 5.43 5.43 0 0 1-.61-2.68c0-.66.09-1.31.25-1.95l2.6.09a7.68 7.68 0 0 0-.18 1.66 3.36 3.36 0 0 0 .55 2.03 1.76 1.76 0 0 0 1.52.75 1.83 1.83 0 0 0 1.5-.65c.4-.57.6-1.26.55-1.96a3.86 3.86 0 0 0-.36-1.74 10.94 10.94 0 0 0-1.12-1.7 13.84 13.84 0 0 1-1-1.45 6.06 6.06 0 0 1-.65-1.55 7.08 7.08 0 0 1-.22-2.12h2.65c0 .48.06.96.2 1.43M78 28.06a3.97 3.97 0 0 1-1.69-1.54 4.3 4.3 0 0 1-.59-2.23 4.62 4.62 0 0 1 .13-1.11l2.6.1a3.37 3.37 0 0 0-.06.75 2.35 2.35 0 0 0 .6 1.72 2.17 2.17 0 0 0 1.62.66 2.22 2.22 0 0 0 1.58-.57 1.96 1.96 0 0 0 .6-1.5 1.85 1.85 0 0 0-.56-1.44 2.26 2.26 0 0 0-1.58-.51h-.7V20.2h.88c.47.03.93-.11 1.3-.39a1.3 1.3 0 0 0 .46-1.06 1.44 1.44 0 0 0-.48-1.1 1.96 1.96 0 0 0-1.3-.48l.13-2.18a5.1 5.1 0 0 1 2.27.47 3.55 3.55 0 0 1 1.51 1.3c.37.58.55 1.25.54 1.93a3.16 3.16 0 0 1-.45 1.67c-.32.5-.79.88-1.35 1.08a2.6 2.6 0 0 1 1.45 1.16c.37.6.56 1.3.55 2a3.82 3.82 0 0 1-.58 2.07 3.91 3.91 0 0 1-1.68 1.45 5.87 5.87 0 0 1-2.61.52 5.71 5.71 0 0 1-2.6-.55M93.69 16.53a4.5 4.5 0 0 0 .5 1.11c.2.31.47.7.81 1.17.35.44.68.9.98 1.39a6.32 6.32 0 0 1 .91 3.48 5.4 5.4 0 0 1-.65 2.68 4.2 4.2 0 0 1-1.71 1.7 5.16 5.16 0 0 1-2.43.56 5.04 5.04 0 0 1-2.4-.57A4.12 4.12 0 0 1 88 26.37a5.43 5.43 0 0 1-.62-2.68c.01-.66.1-1.31.25-1.95l2.6.09a8.1 8.1 0 0 0-.17 1.66 3.36 3.36 0 0 0 .55 2 1.78 1.78 0 0 0 1.52.75 1.8 1.8 0 0 0 1.49-.65c.4-.57.6-1.26.56-1.95a3.77 3.77 0 0 0-.37-1.75 10.93 10.93 0 0 0-1.11-1.7 14.88 14.88 0 0 1-1-1.45 6.57 6.57 0 0 1-.66-1.54 7.3 7.3 0 0 1-.22-2.13h2.66c0 .49.06.97.2 1.43M106.7 27.04a5.53 5.53 0 0 0-2.3-.42H100v-1.95h1.34a5.35 5.35 0 0 1-2.01-2.05 5.87 5.87 0 0 1-.76-2.93 5.75 5.75 0 0 1 .56-2.65c.32-.66.84-1.2 1.48-1.58a4.14 4.14 0 0 1 2.05-.51 4.02 4.02 0 0 1 1.86.44 2.65 2.65 0 0 1 1.26 1.25 2.93 2.93 0 0 1 1.3-1.24 4.14 4.14 0 0 1 1.93-.45 4.43 4.43 0 0 1 2.18.53 3.91 3.91 0 0 1 1.54 1.5c.38.68.58 1.45.56 2.23a4.13 4.13 0 0 1-.57 2.17 3.9 3.9 0 0 1-1.58 1.48 4.82 4.82 0 0 1-2.27.52 4.89 4.89 0 0 1-2.28-.51 4.03 4.03 0 0 1-1.59-1.44 3.86 3.86 0 0 1-.57-2.1v-.36a2.01 2.01 0 0 0-.4-1.3 1.3 1.3 0 0 0-1.07-.5 1.43 1.43 0 0 0-1.23.62 3.26 3.26 0 0 0-.45 1.92 4.44 4.44 0 0 0 1.23 3.38 4.92 4.92 0 0 0 3.02 1.34l.59.06a5.6 5.6 0 0 1 3.11 1.2 3.84 3.84 0 0 1 1.3 2.76h-2.68a1.82 1.82 0 0 0-1.1-1.4l-.06-.01zm3.5-6.43c.35-.4.53-.92.5-1.46a2.1 2.1 0 0 0-.52-1.48 1.68 1.68 0 0 0-1.3-.54 1.72 1.72 0 0 0-1.3.54 2.32 2.32 0 0 0 0 2.9 1.72 1.72 0 0 0 1.3.55 1.69 1.69 0 0 0 1.3-.54M117.13 28.06a4.04 4.04 0 0 1-1.67-1.52 4.22 4.22 0 0 1-.58-2.22c0-.5.08-.99.23-1.46l2.55.1c-.08.37-.12.74-.13 1.11a2.3 2.3 0 0 0 .55 1.61 2 2 0 0 0 1.54.6 1.96 1.96 0 0 0 2.1-2.16v-4.94a1.97 1.97 0 0 0-1.18-1.8 1.96 1.96 0 0 0-2.12.38 1.86 1.86 0 0 0-.39.64 1.85 1.85 0 0 0-.1.75 3.5 3.5 0 0 0 .07.75l-2.66.07a6.5 6.5 0 0 1-.1-1.18 3.52 3.52 0 0 1 .6-2.04 3.91 3.91 0 0 1 1.65-1.36 5.58 5.58 0 0 1 2.33-.47 5.22 5.22 0 0 1 2.33.51 3.85 3.85 0 0 1 1.63 1.47c.4.69.6 1.47.58 2.27v4.95a4.73 4.73 0 0 1-.57 2.38 3.84 3.84 0 0 1-1.64 1.56 5.47 5.47 0 0 1-2.55.56 5.27 5.27 0 0 1-2.47-.56zM129 28.05a4.09 4.09 0 0 1-1.67-1.58 4.57 4.57 0 0 1-.58-2.31 4.8 4.8 0 0 1 .56-2.32 3.91 3.91 0 0 1 1.57-1.58 4.7 4.7 0 0 1 2.33-.56 3.91 3.91 0 0 1 1.5.28c.42.17.8.44 1.1.77v-1.78a1.73 1.73 0 0 0-.66-1.38 2.69 2.69 0 0 0-3.05-.04 1.45 1.45 0 0 0-.6 1.14l-2.72-.1a3.12 3.12 0 0 1 .66-1.91 4.07 4.07 0 0 1 1.73-1.3 6.24 6.24 0 0 1 2.43-.47 5.65 5.65 0 0 1 2.46.53 4.13 4.13 0 0 1 1.73 1.48c.43.64.66 1.4.65 2.16v4.98a4.42 4.42 0 0 1-1.3 3.33 4.9 4.9 0 0 1-3.56 1.23 5.54 5.54 0 0 1-2.6-.56l.03-.01zm4.16-2.25a1.9 1.9 0 0 0 .6-1.45V24a1.96 1.96 0 0 0-.6-1.48 2.25 2.25 0 0 0-1.57-.56 2.2 2.2 0 1 0 0 4.4 2.24 2.24 0 0 0 1.57-.57zM139.27 25.36a20.42 20.42 0 0 1-.26-3.43v-2.05a5.55 5.55 0 0 1 .6-2.68 4.16 4.16 0 0 1 1.67-1.71 5.22 5.22 0 0 1 4.81 0 4.16 4.16 0 0 1 1.67 1.7c.43.82.63 1.73.61 2.66v2.08a20.76 20.76 0 0 1-.26 3.45 21.28 21.28 0 0 1-.74 3.06h-2.57c.62-2.08.93-4.23.93-6.4v-2.06a3.26 3.26 0 0 0-.54-2.03 1.91 1.91 0 0 0-1.5-.71 1.9 1.9 0 0 0-1.48.71 3.35 3.35 0 0 0-.54 2.05v2.04a22.33 22.33 0 0 0 .92 6.4H140a22.74 22.74 0 0 1-.74-3.08M156.81 16.53c.12.39.28.76.5 1.11.2.31.47.7.82 1.17.35.44.67.9.97 1.39a6.66 6.66 0 0 1 .9 3.48 5.39 5.39 0 0 1-.65 2.68 4.14 4.14 0 0 1-1.71 1.7 5.16 5.16 0 0 1-2.43.56 5.04 5.04 0 0 1-2.4-.57 4.14 4.14 0 0 1-1.7-1.68 5.42 5.42 0 0 1-.6-2.68c0-.66.09-1.31.24-1.95l2.61.09a8.09 8.09 0 0 0-.18 1.66 3.36 3.36 0 0 0 .55 2.03 1.76 1.76 0 0 0 1.52.75 1.82 1.82 0 0 0 1.49-.65c.4-.57.6-1.26.56-1.96a3.77 3.77 0 0 0-.36-1.74 10.94 10.94 0 0 0-1.12-1.7 13.76 13.76 0 0 1-1-1.45 6.57 6.57 0 0 1-.66-1.55 7.05 7.05 0 0 1-.22-2.12h2.66a4.93 4.93 0 0 0 .2 1.43" data-color="2"/></g>
	<defs fill="none">
		<clipPath id="a">
			<path fill="#fff" d="M160 0v35H0V0h160z"/>
		</clipPath>
	</defs>
</svg>
